<mxfile host="app.diagrams.net" modified="2023-09-06T00:04:48.202Z" agent="Mozilla/5.0 (Windows NT 10.0; Win64; x64) AppleWebKit/537.36 (KHTML, like Gecko) Chrome/116.0.0.0 Safari/537.36 Edg/116.0.1938.69" etag="aA7WyZ6Bm5NDe4WFhGL5" version="21.7.2" type="github">
  <diagram name="PÃ¡gina-1" id="UUR40JyIWrCSjtDDrcDr">
    <mxGraphModel dx="1379" dy="797" grid="1" gridSize="10" guides="1" tooltips="1" connect="1" arrows="1" fold="1" page="1" pageScale="1" pageWidth="827" pageHeight="1169" math="0" shadow="0">
      <root>
        <mxCell id="0" />
        <mxCell id="1" parent="0" />
        <mxCell id="4Mqh_UqCW2FSAEqXyaWD-35" value="" style="ellipse;whiteSpace=wrap;html=1;" vertex="1" parent="1">
          <mxGeometry x="220" y="520" width="80" height="50" as="geometry" />
        </mxCell>
        <mxCell id="4Mqh_UqCW2FSAEqXyaWD-12" style="edgeStyle=orthogonalEdgeStyle;rounded=0;orthogonalLoop=1;jettySize=auto;html=1;" edge="1" parent="1" source="4Mqh_UqCW2FSAEqXyaWD-1" target="4Mqh_UqCW2FSAEqXyaWD-2">
          <mxGeometry relative="1" as="geometry" />
        </mxCell>
        <mxCell id="4Mqh_UqCW2FSAEqXyaWD-13" style="edgeStyle=orthogonalEdgeStyle;rounded=0;orthogonalLoop=1;jettySize=auto;html=1;" edge="1" parent="1" source="4Mqh_UqCW2FSAEqXyaWD-1" target="4Mqh_UqCW2FSAEqXyaWD-4">
          <mxGeometry relative="1" as="geometry" />
        </mxCell>
        <mxCell id="4Mqh_UqCW2FSAEqXyaWD-14" style="edgeStyle=orthogonalEdgeStyle;rounded=0;orthogonalLoop=1;jettySize=auto;html=1;entryX=0.5;entryY=0;entryDx=0;entryDy=0;" edge="1" parent="1" source="4Mqh_UqCW2FSAEqXyaWD-1" target="4Mqh_UqCW2FSAEqXyaWD-5">
          <mxGeometry relative="1" as="geometry" />
        </mxCell>
        <mxCell id="4Mqh_UqCW2FSAEqXyaWD-39" style="edgeStyle=orthogonalEdgeStyle;rounded=0;orthogonalLoop=1;jettySize=auto;html=1;entryX=0.5;entryY=0;entryDx=0;entryDy=0;" edge="1" parent="1" source="4Mqh_UqCW2FSAEqXyaWD-1" target="4Mqh_UqCW2FSAEqXyaWD-38">
          <mxGeometry relative="1" as="geometry">
            <Array as="points">
              <mxPoint x="230" y="80" />
              <mxPoint x="230" y="160" />
            </Array>
          </mxGeometry>
        </mxCell>
        <mxCell id="4Mqh_UqCW2FSAEqXyaWD-1" value="Vuelo" style="rounded=0;whiteSpace=wrap;html=1;" vertex="1" parent="1">
          <mxGeometry x="120" y="50" width="60" height="30" as="geometry" />
        </mxCell>
        <mxCell id="4Mqh_UqCW2FSAEqXyaWD-2" value="Cod_id" style="ellipse;whiteSpace=wrap;html=1;fillColor=#ffe6cc;strokeColor=#d79b00;fontStyle=1" vertex="1" parent="1">
          <mxGeometry x="30" y="90" width="60" height="30" as="geometry" />
        </mxCell>
        <mxCell id="4Mqh_UqCW2FSAEqXyaWD-4" value="duracion_estimada" style="ellipse;whiteSpace=wrap;html=1;" vertex="1" parent="1">
          <mxGeometry x="70" y="140" width="120" height="30" as="geometry" />
        </mxCell>
        <mxCell id="4Mqh_UqCW2FSAEqXyaWD-5" value="hora_programada&lt;br&gt;salida" style="ellipse;whiteSpace=wrap;html=1;" vertex="1" parent="1">
          <mxGeometry x="200" y="90" width="120" height="50" as="geometry" />
        </mxCell>
        <mxCell id="4Mqh_UqCW2FSAEqXyaWD-6" value="Parada_tecnica" style="rounded=0;whiteSpace=wrap;html=1;" vertex="1" parent="1">
          <mxGeometry x="75" y="280" width="110" height="30" as="geometry" />
        </mxCell>
        <mxCell id="4Mqh_UqCW2FSAEqXyaWD-15" style="edgeStyle=orthogonalEdgeStyle;rounded=0;orthogonalLoop=1;jettySize=auto;html=1;" edge="1" parent="1" source="4Mqh_UqCW2FSAEqXyaWD-8" target="4Mqh_UqCW2FSAEqXyaWD-9">
          <mxGeometry relative="1" as="geometry" />
        </mxCell>
        <mxCell id="4Mqh_UqCW2FSAEqXyaWD-16" style="edgeStyle=orthogonalEdgeStyle;rounded=0;orthogonalLoop=1;jettySize=auto;html=1;" edge="1" parent="1" source="4Mqh_UqCW2FSAEqXyaWD-8" target="4Mqh_UqCW2FSAEqXyaWD-10">
          <mxGeometry relative="1" as="geometry" />
        </mxCell>
        <mxCell id="4Mqh_UqCW2FSAEqXyaWD-17" style="edgeStyle=orthogonalEdgeStyle;rounded=0;orthogonalLoop=1;jettySize=auto;html=1;entryX=0.5;entryY=0;entryDx=0;entryDy=0;" edge="1" parent="1" source="4Mqh_UqCW2FSAEqXyaWD-8" target="4Mqh_UqCW2FSAEqXyaWD-11">
          <mxGeometry relative="1" as="geometry" />
        </mxCell>
        <mxCell id="4Mqh_UqCW2FSAEqXyaWD-8" value="Aeropuerto" style="rounded=0;whiteSpace=wrap;html=1;" vertex="1" parent="1">
          <mxGeometry x="550" y="50" width="80" height="30" as="geometry" />
        </mxCell>
        <mxCell id="4Mqh_UqCW2FSAEqXyaWD-9" value="&lt;b&gt;IATA&lt;/b&gt;" style="ellipse;whiteSpace=wrap;html=1;fillColor=#ffe6cc;strokeColor=#d79b00;" vertex="1" parent="1">
          <mxGeometry x="480" y="90" width="50" height="30" as="geometry" />
        </mxCell>
        <mxCell id="4Mqh_UqCW2FSAEqXyaWD-10" value="jurisdiccion_ciudad" style="ellipse;whiteSpace=wrap;html=1;" vertex="1" parent="1">
          <mxGeometry x="525" y="130" width="130" height="30" as="geometry" />
        </mxCell>
        <mxCell id="4Mqh_UqCW2FSAEqXyaWD-11" value="Categoria" style="ellipse;whiteSpace=wrap;html=1;" vertex="1" parent="1">
          <mxGeometry x="670" y="90" width="75" height="30" as="geometry" />
        </mxCell>
        <mxCell id="4Mqh_UqCW2FSAEqXyaWD-24" style="edgeStyle=orthogonalEdgeStyle;rounded=0;orthogonalLoop=1;jettySize=auto;html=1;entryX=0.5;entryY=0;entryDx=0;entryDy=0;" edge="1" parent="1" source="4Mqh_UqCW2FSAEqXyaWD-19" target="4Mqh_UqCW2FSAEqXyaWD-20">
          <mxGeometry relative="1" as="geometry" />
        </mxCell>
        <mxCell id="4Mqh_UqCW2FSAEqXyaWD-25" style="edgeStyle=orthogonalEdgeStyle;rounded=0;orthogonalLoop=1;jettySize=auto;html=1;entryX=0.5;entryY=0;entryDx=0;entryDy=0;" edge="1" parent="1" source="4Mqh_UqCW2FSAEqXyaWD-19" target="4Mqh_UqCW2FSAEqXyaWD-21">
          <mxGeometry relative="1" as="geometry" />
        </mxCell>
        <mxCell id="4Mqh_UqCW2FSAEqXyaWD-26" style="edgeStyle=orthogonalEdgeStyle;rounded=0;orthogonalLoop=1;jettySize=auto;html=1;entryX=0;entryY=0;entryDx=0;entryDy=0;" edge="1" parent="1" source="4Mqh_UqCW2FSAEqXyaWD-19" target="4Mqh_UqCW2FSAEqXyaWD-22">
          <mxGeometry relative="1" as="geometry" />
        </mxCell>
        <mxCell id="4Mqh_UqCW2FSAEqXyaWD-27" style="edgeStyle=orthogonalEdgeStyle;rounded=0;orthogonalLoop=1;jettySize=auto;html=1;entryX=0.5;entryY=0;entryDx=0;entryDy=0;" edge="1" parent="1" source="4Mqh_UqCW2FSAEqXyaWD-19" target="4Mqh_UqCW2FSAEqXyaWD-23">
          <mxGeometry relative="1" as="geometry" />
        </mxCell>
        <mxCell id="4Mqh_UqCW2FSAEqXyaWD-19" value="Avion" style="rounded=0;whiteSpace=wrap;html=1;" vertex="1" parent="1">
          <mxGeometry x="560" y="270" width="60" height="25" as="geometry" />
        </mxCell>
        <mxCell id="4Mqh_UqCW2FSAEqXyaWD-20" value="&lt;b&gt;N_matricula&lt;/b&gt;" style="ellipse;whiteSpace=wrap;html=1;fillColor=#ffe6cc;strokeColor=#d79b00;" vertex="1" parent="1">
          <mxGeometry x="460" y="310" width="90" height="30" as="geometry" />
        </mxCell>
        <mxCell id="4Mqh_UqCW2FSAEqXyaWD-21" value="capacidad" style="ellipse;whiteSpace=wrap;html=1;" vertex="1" parent="1">
          <mxGeometry x="550" y="350" width="80" height="30" as="geometry" />
        </mxCell>
        <mxCell id="4Mqh_UqCW2FSAEqXyaWD-22" value="fabricante" style="ellipse;whiteSpace=wrap;html=1;" vertex="1" parent="1">
          <mxGeometry x="640" y="350" width="80" height="30" as="geometry" />
        </mxCell>
        <mxCell id="4Mqh_UqCW2FSAEqXyaWD-23" value="modelo" style="ellipse;whiteSpace=wrap;html=1;" vertex="1" parent="1">
          <mxGeometry x="670" y="310" width="70" height="30" as="geometry" />
        </mxCell>
        <mxCell id="4Mqh_UqCW2FSAEqXyaWD-37" style="edgeStyle=orthogonalEdgeStyle;rounded=0;orthogonalLoop=1;jettySize=auto;html=1;entryX=0.5;entryY=0;entryDx=0;entryDy=0;" edge="1" parent="1" source="4Mqh_UqCW2FSAEqXyaWD-29" target="4Mqh_UqCW2FSAEqXyaWD-30">
          <mxGeometry relative="1" as="geometry" />
        </mxCell>
        <mxCell id="4Mqh_UqCW2FSAEqXyaWD-40" style="edgeStyle=orthogonalEdgeStyle;rounded=0;orthogonalLoop=1;jettySize=auto;html=1;entryX=1;entryY=0;entryDx=0;entryDy=0;" edge="1" parent="1" source="4Mqh_UqCW2FSAEqXyaWD-29" target="4Mqh_UqCW2FSAEqXyaWD-31">
          <mxGeometry relative="1" as="geometry" />
        </mxCell>
        <mxCell id="4Mqh_UqCW2FSAEqXyaWD-41" style="edgeStyle=orthogonalEdgeStyle;rounded=0;orthogonalLoop=1;jettySize=auto;html=1;" edge="1" parent="1" source="4Mqh_UqCW2FSAEqXyaWD-29" target="4Mqh_UqCW2FSAEqXyaWD-32">
          <mxGeometry relative="1" as="geometry" />
        </mxCell>
        <mxCell id="4Mqh_UqCW2FSAEqXyaWD-42" style="edgeStyle=orthogonalEdgeStyle;rounded=0;orthogonalLoop=1;jettySize=auto;html=1;" edge="1" parent="1" source="4Mqh_UqCW2FSAEqXyaWD-29" target="4Mqh_UqCW2FSAEqXyaWD-36">
          <mxGeometry relative="1" as="geometry" />
        </mxCell>
        <mxCell id="4Mqh_UqCW2FSAEqXyaWD-43" style="edgeStyle=orthogonalEdgeStyle;rounded=0;orthogonalLoop=1;jettySize=auto;html=1;entryX=0;entryY=0.5;entryDx=0;entryDy=0;" edge="1" parent="1" source="4Mqh_UqCW2FSAEqXyaWD-29" target="4Mqh_UqCW2FSAEqXyaWD-33">
          <mxGeometry relative="1" as="geometry" />
        </mxCell>
        <mxCell id="4Mqh_UqCW2FSAEqXyaWD-44" style="edgeStyle=orthogonalEdgeStyle;rounded=0;orthogonalLoop=1;jettySize=auto;html=1;entryX=0.5;entryY=0;entryDx=0;entryDy=0;" edge="1" parent="1" source="4Mqh_UqCW2FSAEqXyaWD-29" target="4Mqh_UqCW2FSAEqXyaWD-35">
          <mxGeometry relative="1" as="geometry" />
        </mxCell>
        <mxCell id="4Mqh_UqCW2FSAEqXyaWD-29" value="Personal" style="rounded=0;whiteSpace=wrap;html=1;" vertex="1" parent="1">
          <mxGeometry x="95" y="480" width="70" height="30" as="geometry" />
        </mxCell>
        <mxCell id="4Mqh_UqCW2FSAEqXyaWD-30" value="&lt;b&gt;ID&lt;/b&gt;" style="ellipse;whiteSpace=wrap;html=1;fillColor=#ffe6cc;strokeColor=#d79b00;" vertex="1" parent="1">
          <mxGeometry x="25" y="520" width="45" height="20" as="geometry" />
        </mxCell>
        <mxCell id="4Mqh_UqCW2FSAEqXyaWD-31" value="Nombre" style="ellipse;whiteSpace=wrap;html=1;" vertex="1" parent="1">
          <mxGeometry x="10" y="560" width="65" height="30" as="geometry" />
        </mxCell>
        <mxCell id="4Mqh_UqCW2FSAEqXyaWD-32" value="sexo" style="ellipse;whiteSpace=wrap;html=1;" vertex="1" parent="1">
          <mxGeometry x="55" y="600" width="65" height="30" as="geometry" />
        </mxCell>
        <mxCell id="4Mqh_UqCW2FSAEqXyaWD-33" value="f_nacimiento" style="ellipse;whiteSpace=wrap;html=1;" vertex="1" parent="1">
          <mxGeometry x="215" y="580" width="90" height="30" as="geometry" />
        </mxCell>
        <mxCell id="4Mqh_UqCW2FSAEqXyaWD-34" value="estudios" style="ellipse;whiteSpace=wrap;html=1;" vertex="1" parent="1">
          <mxGeometry x="227.5" y="530" width="65" height="30" as="geometry" />
        </mxCell>
        <mxCell id="4Mqh_UqCW2FSAEqXyaWD-36" value="cargo" style="ellipse;whiteSpace=wrap;html=1;" vertex="1" parent="1">
          <mxGeometry x="147" y="600" width="50" height="30" as="geometry" />
        </mxCell>
        <mxCell id="4Mqh_UqCW2FSAEqXyaWD-38" value="f_realizacion" style="ellipse;whiteSpace=wrap;html=1;" vertex="1" parent="1">
          <mxGeometry x="177" y="170" width="105" height="30" as="geometry" />
        </mxCell>
      </root>
    </mxGraphModel>
  </diagram>
</mxfile>
